<svg version="1.1" id="Layer_1" xmlns="http://www.w3.org/2000/svg" xmlns:xlink="http://www.w3.org/1999/xlink" x="0px" y="0px"
	 width="100%" viewBox="0 0 500 500" enable-background="new 0 0 500 500" xml:space="preserve">
<path fill="#5E17EB" opacity="1.000000" stroke="none" 
	d="
M330.000000,501.000000 
	C220.000031,501.000000 110.500053,501.000000 1.000059,501.000000 
	C1.000039,334.333405 1.000039,167.666794 1.000020,1.000148 
	C167.666565,1.000099 334.333130,1.000099 500.999756,1.000049 
	C500.999847,167.666519 500.999847,334.333038 500.999939,500.999786 
	C444.166656,501.000000 387.333344,501.000000 330.000000,501.000000 
M271.501160,61.493038 
	C267.335968,61.493023 263.126862,61.874226 259.016296,61.400227 
	C253.387634,60.751163 249.989563,63.148006 246.478210,67.373138 
	C217.834641,101.839233 188.935028,136.092560 160.111771,170.409332 
	C159.127548,171.581161 158.127151,172.739410 157.134277,173.903976 
	C156.786743,173.679749 156.439209,173.455521 156.091675,173.231293 
	C156.091675,136.152985 156.091675,99.074669 156.091675,61.767883 
	C134.894073,61.767883 114.134903,61.767883 93.334885,61.767883 
	C93.334885,154.409790 93.334885,246.776337 93.334885,339.112793 
	C114.420647,339.112793 135.142792,339.112793 156.282700,339.112793 
	C156.282700,300.154480 156.282700,261.588013 156.282700,223.021561 
	C156.736115,222.707001 157.189529,222.392456 157.642944,222.077896 
	C158.419662,223.298141 159.056717,224.639282 159.993286,225.721146 
	C191.397903,261.998138 222.775696,298.298889 254.347260,334.430206 
	C257.450531,337.981689 258.640778,341.436310 258.619232,346.043884 
	C258.464325,379.205597 258.536255,412.368408 258.536285,445.530853 
	C258.536285,447.438354 258.536316,449.345825 258.536316,451.108948 
	C280.161774,451.108948 300.906677,451.108948 322.042938,451.108948 
	C322.042938,413.949799 322.042938,377.186829 322.042938,339.821716 
	C352.137726,339.821716 381.840210,339.821716 411.487549,339.821716 
	C411.487549,321.140900 411.487549,303.067932 411.487549,284.480347 
	C381.586426,284.480347 352.004333,284.480347 322.347382,284.480347 
	C322.347382,265.772552 322.347382,247.586929 322.347382,228.871933 
	C354.836609,228.871933 386.892944,228.871933 418.764709,228.871933 
	C418.764709,210.255890 418.764709,192.176788 418.764709,174.057281 
	C365.287445,174.057281 312.175079,174.057281 258.417175,174.057281 
	C258.417175,195.801010 258.417175,217.329178 258.417175,238.857346 
	C258.043243,238.994202 257.669342,239.131042 257.295410,239.267899 
	C243.791550,224.017899 230.287674,208.767914 216.553253,193.257523 
	C253.689346,149.494965 290.640015,105.950928 328.366119,61.493107 
	C308.773712,61.493107 290.637238,61.493107 271.501160,61.493038 
z"/>
<path fill="#FEFEFF" opacity="1.000000" stroke="none" 
	d="
M272.000977,61.493073 
	C290.637238,61.493107 308.773712,61.493107 328.366119,61.493107 
	C290.640015,105.950928 253.689346,149.494965 216.553253,193.257523 
	C230.287674,208.767914 243.791550,224.017899 257.295410,239.267899 
	C257.669342,239.131042 258.043243,238.994202 258.417175,238.857346 
	C258.417175,217.329178 258.417175,195.801010 258.417175,174.057281 
	C312.175079,174.057281 365.287445,174.057281 418.764709,174.057281 
	C418.764709,192.176788 418.764709,210.255890 418.764709,228.871933 
	C386.892944,228.871933 354.836609,228.871933 322.347382,228.871933 
	C322.347382,247.586929 322.347382,265.772552 322.347382,284.480347 
	C352.004333,284.480347 381.586426,284.480347 411.487549,284.480347 
	C411.487549,303.067932 411.487549,321.140900 411.487549,339.821716 
	C381.840210,339.821716 352.137726,339.821716 322.042938,339.821716 
	C322.042938,377.186829 322.042938,413.949799 322.042938,451.108948 
	C300.906677,451.108948 280.161774,451.108948 258.536316,451.108948 
	C258.536316,449.345825 258.536285,447.438354 258.536285,445.530853 
	C258.536255,412.368408 258.464325,379.205597 258.619232,346.043884 
	C258.640778,341.436310 257.450531,337.981689 254.347260,334.430206 
	C222.775696,298.298889 191.397903,261.998138 159.993286,225.721146 
	C159.056717,224.639282 158.419662,223.298141 157.642944,222.077896 
	C157.189529,222.392456 156.736115,222.707001 156.282700,223.021561 
	C156.282700,261.588013 156.282700,300.154480 156.282700,339.112793 
	C135.142792,339.112793 114.420647,339.112793 93.334885,339.112793 
	C93.334885,246.776337 93.334885,154.409790 93.334885,61.767883 
	C114.134903,61.767883 134.894073,61.767883 156.091675,61.767883 
	C156.091675,99.074669 156.091675,136.152985 156.091675,173.231293 
	C156.439209,173.455521 156.786743,173.679749 157.134277,173.903976 
	C158.127151,172.739410 159.127548,171.581161 160.111771,170.409332 
	C188.935028,136.092560 217.834641,101.839233 246.478210,67.373138 
	C249.989563,63.148006 253.387634,60.751163 259.016296,61.400227 
	C263.126862,61.874226 267.335968,61.493023 272.000977,61.493073 
z"/>
</svg>